<mxfile host="Electron" modified="2024-01-23T09:34:25.467Z" agent="Mozilla/5.0 (Windows NT 10.0; Win64; x64) AppleWebKit/537.36 (KHTML, like Gecko) draw.io/22.1.18 Chrome/120.0.6099.199 Electron/28.1.2 Safari/537.36" etag="j7xdRZPEXzNq7zjLRh8M" version="22.1.18" type="device">
  <diagram name="第 1 页" id="2k2J-75Yt8Axtbk36p_H">
    <mxGraphModel dx="698" dy="470" grid="1" gridSize="10" guides="1" tooltips="1" connect="1" arrows="1" fold="1" page="1" pageScale="1" pageWidth="827" pageHeight="1169" math="0" shadow="0">
      <root>
        <mxCell id="0" />
        <mxCell id="1" parent="0" />
        <mxCell id="kvYp8g6SOvtufZzMI7-M-17" value="" style="rounded=0;whiteSpace=wrap;html=1;dashed=1;" vertex="1" parent="1">
          <mxGeometry x="360" width="360" height="480" as="geometry" />
        </mxCell>
        <mxCell id="kvYp8g6SOvtufZzMI7-M-16" value="" style="rounded=0;whiteSpace=wrap;html=1;dashed=1;" vertex="1" parent="1">
          <mxGeometry x="120" y="120" width="200" height="360" as="geometry" />
        </mxCell>
        <mxCell id="kvYp8g6SOvtufZzMI7-M-1" value="&lt;font style=&quot;font-size: 18px;&quot;&gt;read&lt;/font&gt;" style="rounded=0;whiteSpace=wrap;html=1;" vertex="1" parent="1">
          <mxGeometry x="160" y="160" width="120" height="60" as="geometry" />
        </mxCell>
        <mxCell id="kvYp8g6SOvtufZzMI7-M-2" value="&lt;font style=&quot;font-size: 18px;&quot;&gt;sys_read&lt;/font&gt;" style="rounded=0;whiteSpace=wrap;html=1;" vertex="1" parent="1">
          <mxGeometry x="160" y="280" width="120" height="60" as="geometry" />
        </mxCell>
        <mxCell id="kvYp8g6SOvtufZzMI7-M-3" value="&lt;font style=&quot;font-size: 18px;&quot;&gt;evdev_read&lt;/font&gt;" style="rounded=0;whiteSpace=wrap;html=1;" vertex="1" parent="1">
          <mxGeometry x="160" y="400" width="120" height="60" as="geometry" />
        </mxCell>
        <mxCell id="kvYp8g6SOvtufZzMI7-M-4" value="&lt;font style=&quot;font-size: 18px;&quot;&gt;evdev_wait&lt;br&gt;&lt;/font&gt;" style="rounded=0;whiteSpace=wrap;html=1;" vertex="1" parent="1">
          <mxGeometry x="480" y="400" width="120" height="60" as="geometry" />
        </mxCell>
        <mxCell id="kvYp8g6SOvtufZzMI7-M-5" value="" style="endArrow=classic;startArrow=classic;html=1;rounded=0;entryX=0.5;entryY=1;entryDx=0;entryDy=0;exitX=0.5;exitY=0;exitDx=0;exitDy=0;" edge="1" parent="1" source="kvYp8g6SOvtufZzMI7-M-2" target="kvYp8g6SOvtufZzMI7-M-1">
          <mxGeometry width="50" height="50" relative="1" as="geometry">
            <mxPoint x="350" y="500" as="sourcePoint" />
            <mxPoint x="400" y="450" as="targetPoint" />
          </mxGeometry>
        </mxCell>
        <mxCell id="kvYp8g6SOvtufZzMI7-M-6" value="" style="endArrow=classic;startArrow=classic;html=1;rounded=0;exitX=0.5;exitY=0;exitDx=0;exitDy=0;entryX=0.5;entryY=1;entryDx=0;entryDy=0;" edge="1" parent="1" source="kvYp8g6SOvtufZzMI7-M-3" target="kvYp8g6SOvtufZzMI7-M-2">
          <mxGeometry width="50" height="50" relative="1" as="geometry">
            <mxPoint x="230" y="240" as="sourcePoint" />
            <mxPoint x="280" y="190" as="targetPoint" />
          </mxGeometry>
        </mxCell>
        <mxCell id="kvYp8g6SOvtufZzMI7-M-9" value="" style="endArrow=classic;startArrow=classic;html=1;rounded=0;entryX=0;entryY=0.5;entryDx=0;entryDy=0;exitX=1;exitY=0.5;exitDx=0;exitDy=0;" edge="1" parent="1" source="kvYp8g6SOvtufZzMI7-M-3" target="kvYp8g6SOvtufZzMI7-M-4">
          <mxGeometry width="50" height="50" relative="1" as="geometry">
            <mxPoint x="320" y="390" as="sourcePoint" />
            <mxPoint x="370" y="340" as="targetPoint" />
          </mxGeometry>
        </mxCell>
        <mxCell id="kvYp8g6SOvtufZzMI7-M-10" value="&lt;font style=&quot;font-size: 18px;&quot;&gt;evdev_event | evdev_events&lt;/font&gt;" style="rounded=0;whiteSpace=wrap;html=1;" vertex="1" parent="1">
          <mxGeometry x="440" y="280" width="200" height="60" as="geometry" />
        </mxCell>
        <mxCell id="kvYp8g6SOvtufZzMI7-M-11" value="" style="endArrow=classic;html=1;rounded=0;entryX=0.5;entryY=0;entryDx=0;entryDy=0;exitX=0.5;exitY=1;exitDx=0;exitDy=0;" edge="1" parent="1" source="kvYp8g6SOvtufZzMI7-M-10" target="kvYp8g6SOvtufZzMI7-M-4">
          <mxGeometry width="50" height="50" relative="1" as="geometry">
            <mxPoint x="460" y="360" as="sourcePoint" />
            <mxPoint x="510" y="310" as="targetPoint" />
          </mxGeometry>
        </mxCell>
        <mxCell id="kvYp8g6SOvtufZzMI7-M-12" value="&lt;font style=&quot;font-size: 18px;&quot;&gt;input_handler-&amp;gt;event/events&lt;/font&gt;" style="rounded=0;whiteSpace=wrap;html=1;" vertex="1" parent="1">
          <mxGeometry x="400" y="160" width="280" height="60" as="geometry" />
        </mxCell>
        <mxCell id="kvYp8g6SOvtufZzMI7-M-13" value="" style="endArrow=classic;html=1;rounded=0;entryX=0.5;entryY=0;entryDx=0;entryDy=0;exitX=0.5;exitY=1;exitDx=0;exitDy=0;" edge="1" parent="1" source="kvYp8g6SOvtufZzMI7-M-12" target="kvYp8g6SOvtufZzMI7-M-10">
          <mxGeometry width="50" height="50" relative="1" as="geometry">
            <mxPoint x="440" y="260" as="sourcePoint" />
            <mxPoint x="490" y="210" as="targetPoint" />
          </mxGeometry>
        </mxCell>
        <mxCell id="kvYp8g6SOvtufZzMI7-M-14" value="&lt;font style=&quot;font-size: 18px;&quot;&gt;input_event -&amp;gt; input_handler&lt;br&gt;-&amp;gt; input_sync&lt;br&gt;&lt;/font&gt;" style="rounded=0;whiteSpace=wrap;html=1;" vertex="1" parent="1">
          <mxGeometry x="400" y="40" width="280" height="60" as="geometry" />
        </mxCell>
        <mxCell id="kvYp8g6SOvtufZzMI7-M-15" value="" style="endArrow=classic;html=1;rounded=0;exitX=0.5;exitY=1;exitDx=0;exitDy=0;entryX=0.5;entryY=0;entryDx=0;entryDy=0;" edge="1" parent="1" source="kvYp8g6SOvtufZzMI7-M-14" target="kvYp8g6SOvtufZzMI7-M-12">
          <mxGeometry width="50" height="50" relative="1" as="geometry">
            <mxPoint x="450" y="170" as="sourcePoint" />
            <mxPoint x="500" y="120" as="targetPoint" />
          </mxGeometry>
        </mxCell>
        <mxCell id="kvYp8g6SOvtufZzMI7-M-19" value="&lt;font style=&quot;font-size: 18px;&quot;&gt;LVGL &lt;br&gt;应用程序&lt;/font&gt;" style="rounded=0;whiteSpace=wrap;html=1;" vertex="1" parent="1">
          <mxGeometry x="160" y="40" width="120" height="60" as="geometry" />
        </mxCell>
        <mxCell id="kvYp8g6SOvtufZzMI7-M-20" value="" style="endArrow=classic;startArrow=classic;html=1;rounded=0;exitX=1;exitY=0.5;exitDx=0;exitDy=0;entryX=0;entryY=0.5;entryDx=0;entryDy=0;" edge="1" parent="1" source="kvYp8g6SOvtufZzMI7-M-19" target="kvYp8g6SOvtufZzMI7-M-14">
          <mxGeometry width="50" height="50" relative="1" as="geometry">
            <mxPoint x="290" y="140" as="sourcePoint" />
            <mxPoint x="340" y="90" as="targetPoint" />
          </mxGeometry>
        </mxCell>
      </root>
    </mxGraphModel>
  </diagram>
</mxfile>
